<?xml version="1.0" encoding="UTF-8" standalone="no"?>
<!DOCTYPE svg PUBLIC "-//W3C//DTD SVG 20010904//EN" "http://www.w3.org/TR/2001/REC-SVG-20010904/DTD/svg10.dtd">
<svg version="1.0" xmlns="http://www.w3.org/2000/svg" width="900.000000pt" height="288.000000pt" viewBox="0 0 900.000000 288.000000" preserveAspectRatio="xMidYMid meet">
<metadata>
Created by potrace 1.10, written by Peter Selinger 2001-2011
</metadata>
<g transform="translate(0.000000,288.000000) scale(0.100000,-0.100000)" fill="#eae40d" stroke="none">
<path d="M117 2743 c-4 -3 -7 -583 -7 -1288 l0 -1281 44 -22 43 -22 4327 2 c3833 3 4328 5 4336 18 6 9 10 493 10 1262 0 1217 0 1247 -20 1292 l-19 46 -4354 0 c-2395 0 -4357 -3 -4360 -7z m8603 -162 c16 -30 14 -2283 -2 -2299 -9 -9 -962 -12 -4227 -12 -3908 0 -4216 1 -4233 17 -17 15 -18 64 -18 1142 0 1003 2 1129 16 1149 l15 22 4219 0 c4161 0 4219 0 4230 -19z"/>
<path d="M3035 2080 c-16 -5 -47 -13 -67 -18 -20 -5 -76 -29 -124 -52 -219 -106 -354 -332 -354 -595 0 -192 71 -357 214 -500 91 -91 190 -147 331 -187 115 -32 324 -32 445 0 361 98 560 409 499 782 -13 79 -57 192 -104 266 -71 111 -217 227 -335 266 -25 8 -61 21 -80 28 -42 16 -379 23 -425 10z m352 -214 c82 -22 143 -57 203 -116 109 -109 154 -249 131 -402 -29 -192 -149 -334 -341 -407 -82 -31 -224 -29 -314 3 -152 55 -249 153 -292 295 -68 224 32 472 234 579 107 57 268 78 379 48z"/>
<path d="M4975 2073 c-98 -30 -212 -84 -268 -128 -257 -202 -323 -590 -151 -886 48 -83 173 -206 256 -253 311 -174 723 -129 959 104 127 126 189 280 189 475 0 249 -129 479 -336 600 -82 48 -122 64 -239 94 -64 17 -351 13 -410 -6z m375 -204 c104 -24 208 -96 268 -187 65 -99 88 -189 78 -308 -14 -159 -103 -301 -239 -383 -81 -49 -163 -71 -261 -71 -191 0 -349 93 -424 250 -138 291 26 627 338 694 78 17 179 19 240 5z"/>
<path d="M847 2073 c-4 -3 -7 -39 -7 -79 l0 -72 44 -26 c28 -16 60 -26 84 -26 22 0 45 -6 51 -13 7 -10 11 -151 11 -463 1 -520 11 -476 -107 -472 -39 2 -74 1 -77 -2 -2 -3 -6 -36 -7 -74 -2 -75 3 -84 68 -112 38 -17 475 -20 517 -4 35 13 43 64 21 132 -10 29 -23 56 -29 60 -6 4 -36 8 -67 8 -30 0 -60 5 -67 12 -18 18 -17 348 2 373 10 14 30 20 80 23 74 5 104 -8 128 -55 8 -15 38 -72 66 -125 29 -54 74 -140 101 -190 106 -201 106 -201 151 -225 37 -20 58 -23 144 -23 153 0 173 20 145 138 -14 62 -25 68 -108 70 -63 1 -75 11 -119 92 -119 223 -162 309 -162 324 0 10 23 27 63 47 85 40 127 77 162 140 24 45 30 69 33 140 8 171 -69 303 -213 363 -92 39 -177 46 -546 46 -196 0 -359 -3 -362 -7z m805 -225 c38 -17 78 -77 78 -116 0 -29 -29 -94 -53 -120 -48 -52 -90 -64 -236 -66 -75 0 -144 2 -153 6 -16 7 -18 23 -18 143 0 185 -7 178 194 173 110 -3 161 -9 188 -20z"/>
<path d="M6387 2073 c-4 -3 -7 -39 -7 -79 l0 -72 44 -26 c25 -14 58 -26 74 -26 51 0 52 -12 52 -480 0 -495 5 -468 -89 -464 -80 4 -81 2 -81 -82 l0 -73 43 -25 c41 -24 48 -25 237 -25 139 -1 202 3 220 12 31 15 37 52 19 125 -14 58 -31 72 -89 72 -55 0 -55 7 -50 433 3 246 9 388 15 389 9 1 46 -64 72 -128 6 -16 26 -65 43 -109 18 -44 59 -145 92 -225 33 -80 80 -194 105 -255 24 -60 51 -123 58 -140 7 -16 23 -55 35 -86 21 -53 58 -89 90 -89 16 0 102 197 359 825 34 83 66 161 72 174 8 19 13 21 22 12 9 -9 13 -114 15 -395 4 -445 9 -419 -90 -414 -71 3 -78 -4 -78 -84 0 -54 2 -58 37 -85 l36 -28 206 -3 c239 -4 268 0 283 33 11 24 -3 125 -21 154 -4 6 -32 14 -62 18 -30 3 -60 10 -66 16 -10 7 -13 110 -13 453 0 501 -5 474 79 474 26 0 55 6 64 13 26 19 30 75 10 137 l-18 55 -239 3 c-151 1 -243 -1 -251 -8 -6 -5 -24 -40 -39 -77 -67 -165 -119 -290 -132 -318 -7 -16 -24 -56 -38 -87 -15 -31 -26 -60 -26 -64 0 -4 -9 -25 -19 -48 -11 -23 -36 -81 -56 -131 -21 -49 -42 -96 -47 -102 -14 -18 -28 -16 -35 4 -3 10 -32 81 -63 158 -32 77 -86 208 -120 290 -115 281 -132 320 -157 353 l-24 32 -233 0 c-128 0 -236 -3 -239 -7z"/>
</g>
</svg>